<svg xmlns="http://www.w3.org/2000/svg" width="3760" height="384" viewBox="0 0 3760 384">
  <defs>
    <style>
      .cls-1 {
        fill: #fff;
        fill-rule: evenodd;
      }
    </style>
  </defs>
  <path id="Fond_1" data-name="Fond 1" class="cls-1" d="M0.485,378.327h88.58l30.385-75H261.075l31.415,75h90.64l-158.62-354H158.075Zm233.295-141H144.685l44.29-110Zm417.148-102h-77.25v121c0,31.5-6.18,62-46.35,62-39.655,0-40.169-36-40.169-64v-119h-77.25v134c0,65,14.42,115,92.7,115,37.595,0,62.83-20,73.13-39h1.03v33h74.16v-243Zm54.585,243h77.25v-101.5c0-48.5,7.21-81.5,65.92-81.5,11.33,0,22.145,2,32.96,5v-68.5c-7.21-2-17-2.5-25.75-2.5-33.99,0-55.62,15.5-72.1,45h-1.03v-39h-77.25v243Zm383.167-80.5c-12.88,17-29.87,29.5-55.11,29.5-29.87,0-52.013-18.5-58.193-47H1154.6v-23.5c0-77.5-45.32-127.5-117.42-127.5-77.253,0-139.053,50-139.053,127.5s61.8,127.5,139.053,127.5c40.17,0,80.85-17.5,105.57-48Zm-113.3-68.5c2.06-23.5,20.6-46,54.593-46,27.81,0,47.89,21,47.38,46H975.377Zm-0.515-133h67.978l89.1-72H1026.88Zm227.628,282h77.25v-378h-77.25v378Zm133.89,0h77.25v-243h-77.25v243Zm-6.18-319.5c0,24,20.09,43.5,44.81,43.5s44.8-19.5,44.8-43.5-20.08-43.5-44.8-43.5S1330.2,34.827,1330.2,58.827Zm321.88,239c-12.88,17-29.87,29.5-55.11,29.5-29.87,0-52.01-18.5-58.19-47H1718v-23.5c0-77.5-45.32-127.5-117.42-127.5-77.25,0-139.05,50-139.05,127.5s61.8,127.5,139.05,127.5c40.17,0,80.85-17.5,105.57-48Zm-113.3-68.5c2.06-23.5,20.6-46,54.59-46,27.81,0,47.89,21,47.38,46H1538.78Zm226.08,149h77.25v-121c0-31.5,6.18-62,46.35-62,39.65,0,40.17,36,40.17,64v119h77.25v-134c0-65-14.42-115-92.7-115-37.6,0-62.83,20-73.13,39h-1.03v-33h-74.16v243Zm460.91,0h229.18v-72H2306.11v-282h-80.34v354Zm254.4-121.5c0,77.5,61.8,127.5,139.05,127.5s139.05-50,139.05-127.5-61.8-127.5-139.05-127.5S2480.17,179.327,2480.17,256.827Zm77.25,0c0-36.5,23.18-61.5,61.8-61.5s61.8,25,61.8,61.5-23.17,61.5-61.8,61.5S2557.42,293.327,2557.42,256.827Zm487.19-121.5h-77.25v121c0,31.5-6.18,62-46.35,62-39.66,0-40.17-36-40.17-64v-119h-77.25v134c0,65,14.42,115,92.7,115,37.59,0,62.83-20,73.13-39h1.03v33h74.16v-243Zm131.83,243h81.89l98.88-243h-77.77l-58.71,165h-1.03l-63.34-165h-83.43Zm391.92-80.5c-12.88,17-29.87,29.5-55.11,29.5-29.87,0-52.01-18.5-58.19-47h179.22v-23.5c0-77.5-45.32-127.5-117.42-127.5-77.25,0-139.05,50-139.05,127.5s61.8,127.5,139.05,127.5c40.17,0,80.85-17.5,105.57-48Zm-113.3-68.5c2.06-23.5,20.6-46,54.59-46,27.81,0,47.89,21,47.38,46H3455.06Zm227.11,149h77.25v-378h-77.25v378Z"/>
</svg>
